<?xml version="1.0" encoding="UTF-8"?>
<svg width="38px" height="38px" viewBox="0 0 38 38" version="1.1" xmlns="http://www.w3.org/2000/svg" xmlns:xlink="http://www.w3.org/1999/xlink">
    <title>btn-download</title>
    <g id="Page-1" stroke="none" stroke-width="1" fill="none" fill-rule="evenodd">
        <g id="btn-download">
            <circle id="Oval" opacity="0.803222656" fill-rule="nonzero" cx="19" cy="19" r="19"></circle>
            <path d="M14.4155695,11 L14.4155695,19.9593199 L14.4155695,19.9593199 L11.3008165,19.9593199 C11.0246741,19.9593199 10.8008165,20.1831775 10.8008165,20.4593199 C10.8008165,20.6008695 10.8608135,20.7357862 10.9659211,20.8305948 L18.2507008,27.4015726 C18.6285658,27.7424124 19.2021335,27.7451312 19.5832128,27.4078891 L27.0119018,20.8337531 C27.2186955,20.6507477 27.2379798,20.3347531 27.0549744,20.1279594 C26.9600716,20.0207204 26.823743,19.9593199 26.6805413,19.9593199 L23.2787935,19.9593199 L23.2787935,19.9593199 L23.2787935,11 C23.2787935,10.4477153 22.8310783,10 22.2787935,10 L15.4155695,10 C14.8632848,10 14.4155695,10.4477153 14.4155695,11 Z" id="Path-8" stroke="#1A1A1A" stroke-linejoin="round"></path>
        </g>
    </g>
</svg>