<?xml version="1.0" encoding="UTF-8"?>
<svg width="38px" height="38px" viewBox="0 0 38 38" version="1.1" xmlns="http://www.w3.org/2000/svg" xmlns:xlink="http://www.w3.org/1999/xlink">
    <title>btn_trash</title>
    <g id="Page-1" stroke="none" stroke-width="1" fill="none" fill-rule="evenodd">
        <g id="btn_trash">
            <circle id="Oval" opacity="0.803222656" fill-rule="nonzero" cx="19" cy="19" r="19"></circle>
            <g id="icon" transform="translate(11.000000, 10.000000)" stroke="#1A1A1A">
                <path d="M14.75,2.95501136 L14.0938126,15.5713119 C14.0248739,16.896775 13.1659874,17.9267273 12.1296106,17.9267273 L3.87038938,17.9267273 C2.83401256,17.9267273 1.97512612,16.896775 1.90618736,15.5713119 L1.25,2.95501136" id="Path"></path>
                <path d="M3,2.92672726 C3.02424651,2.92488376 3.02886377,2.28513636 3.01385177,1.00748507 C3.00967662,0.4552161 3.45402801,0.0041620752 4.00629729,2.80158243e-05 C4.00777891,1.69250346e-05 4.00926055,9.12714479e-06 4.01074219,0 L12,0 C12.5522847,-1.01453063e-16 13,0.44771525 13,1 L13,2.92672726 L13,2.92672726" id="Path" stroke-linecap="round"></path>
                <line x1="5.68434189e-14" y1="2.92672726" x2="16" y2="2.92672726" id="Path-5" stroke-linecap="round"></line>
                <line x1="5.93" y1="6.63513752" x2="5.93" y2="13.7589988" id="Path-4" stroke-linecap="round"></line>
                <line x1="10.0655975" y1="6.63513752" x2="10.0655975" y2="13.7589988" id="Path-4-Copy" stroke-linecap="round"></line>
            </g>
        </g>
    </g>
</svg>